<svg width="122" height="20" viewBox="0 0 122 20" fill="none" xmlns="http://www.w3.org/2000/svg">
<path d="M18.3274 0.384615V19.6154H12.8787V12.1154H5.44868V19.6154H0V0.384615H5.44868V7.60989H12.8787V0.384615H18.3274Z" fill="#000212"/>
<path d="M38.7369 18.1593C37.7463 18.7271 36.5446 19.1758 35.132 19.5055C33.7194 19.8352 32.2517 20 30.729 20C28.6743 20 26.9223 19.7527 25.473 19.2582C24.042 18.7637 22.9596 18.0769 22.2258 17.1978C21.5103 16.3187 21.1525 15.3022 21.1525 14.1484C21.1525 13.141 21.4277 12.2527 21.9781 11.4835C22.5285 10.7143 23.2898 10.119 24.2621 9.6978C23.51 9.31319 22.9321 8.78205 22.5285 8.10439C22.1432 7.40842 21.9506 6.64835 21.9506 5.82417C21.9506 4.7619 22.2808 3.79121 22.9413 2.91209C23.6201 2.03297 24.6474 1.32784 26.0233 0.796703C27.3993 0.265567 29.0962 0 31.1143 0C32.3801 0 33.6276 0.119048 34.8568 0.357143C36.086 0.595238 37.1684 0.915751 38.104 1.31868L36.618 5.38462C34.9118 4.6337 33.1507 4.25824 31.3344 4.25824C30.0319 4.25824 29.0596 4.43223 28.4175 4.78022C27.7754 5.10989 27.4543 5.57692 27.4543 6.18132C27.4543 7.28022 28.2523 7.82967 29.8484 7.82967H35.2971V11.978H29.4907C28.5551 11.978 27.8487 12.1337 27.3717 12.4451C26.8948 12.7381 26.6563 13.1777 26.6563 13.7637C26.6563 14.3864 27.0048 14.8718 27.702 15.2198C28.3991 15.5678 29.4815 15.7418 30.9492 15.7418C31.9949 15.7418 33.0681 15.6044 34.1688 15.3297C35.2879 15.0366 36.2603 14.6429 37.0858 14.1484L38.7369 18.1593Z" fill="#000212"/>
<path d="M51.854 0C54.1473 0 55.9268 0.732601 57.1927 2.1978C58.4585 3.64469 59.0914 5.71428 59.0914 8.40659V19.6154H53.6428V8.57143C53.6428 7.21612 53.3309 6.19963 52.7071 5.52198C52.1017 4.84432 51.2486 4.5055 50.1479 4.5055C49.0105 4.5055 48.0932 4.87179 47.396 5.60439C46.6989 6.31868 46.3503 7.39927 46.3503 8.84615V19.6154H40.9016V0.384615H46.1852V2.58242C47.4878 0.860806 49.3774 0 51.854 0Z" fill="#000212"/>
<path d="M62.7768 0.384615H71.8854C73.9952 0.384615 75.8665 0.778389 77.4992 1.56594C79.132 2.35348 80.3978 3.4707 81.2968 4.91758C82.1957 6.36447 82.6452 8.05861 82.6452 10C82.6452 11.9414 82.1957 13.6355 81.2968 15.0824C80.3978 16.5293 79.132 17.6465 77.4992 18.4341C75.8665 19.2216 73.9952 19.6154 71.8854 19.6154H62.7768V0.384615ZM71.6653 15.2747C73.3164 15.2747 74.6373 14.8077 75.628 13.8736C76.637 12.9396 77.1415 11.6484 77.1415 10C77.1415 8.35165 76.637 7.06044 75.628 6.12637C74.6373 5.19231 73.3164 4.72527 71.6653 4.72527H68.2255V15.2747H71.6653Z" fill="#000212"/>
<path d="M94.5104 0C96.3267 0 97.9227 0.3663 99.2987 1.0989C100.693 1.81319 101.766 2.8663 102.518 4.25824C103.289 5.63187 103.674 7.28938 103.674 9.23077V19.6154H98.2254V15.3571H90.7129V19.6154H85.3468V9.23077C85.3468 7.28938 85.7228 5.63187 86.475 4.25824C87.2455 2.8663 88.3188 1.81319 89.6947 1.0989C91.089 0.3663 92.6942 0 94.5104 0ZM98.2254 11.1538V8.76374C98.2254 7.35348 97.886 6.29121 97.2073 5.57692C96.5285 4.86264 95.6203 4.5055 94.4829 4.5055C93.3271 4.5055 92.4099 4.86264 91.7311 5.57692C91.0523 6.29121 90.7129 7.35348 90.7129 8.76374V11.1538H98.2254Z" fill="#000212"/>
<path d="M107.36 0.384615H112.809V15.3022H122V19.6154H107.36V0.384615Z" fill="#000212"/>
</svg>
